<?xml version="1.0" encoding="utf-8"?>
<!-- Generator: Adobe Illustrator 19.0.0, SVG Export Plug-In . SVG Version: 6.00 Build 0)  -->
<svg version="1.1" id="layer" xmlns="http://www.w3.org/2000/svg" xmlns:xlink="http://www.w3.org/1999/xlink" x="0px" y="0px"
	 viewBox="-153 -46 652 652" style="enable-background:new -153 -46 652 652;" xml:space="preserve">
<style type="text/css">
	.st0{fill:#0078AE;}
</style>
<path d="M9.2,250.6h15.1l18.1,49.8h-16l-2.1-7.1H8.4l-2.2,7.1H-9.2L9.2,250.6z M21.2,282.6l-4.5-15.3h-0.1l-4.8,15.3H21.2z
	 M49.9,250.6h15.3v49.8H49.9V250.6z M77.3,250.6h29.2c8.8,0,16.2,4.8,16.2,14.3c0,5.1-2.4,10.6-7.5,12.4c4.2,1.6,6.8,6.2,7.3,12.4
	c0.3,2.5,0.3,8.4,1.7,10.6h-15.5c-0.7-2.5-1.2-5.1-1.3-7.6c-0.4-4.7-0.8-9.7-6.9-9.7h-8.1v17.3H77.3V250.6z M92.6,272.4h8
	c2.9,0,6.8-0.5,6.8-5c0-3.1-1.7-5-7.6-5h-7.2C92.6,262.4,92.6,272.4,92.6,272.4z M145.3,283.6c0,1.2,0.1,2.2,0.5,3.3
	c1.2,3,4.5,3.7,7.3,3.7c2.5,0,6.3-0.8,6.3-4.6c0-2.6-2.1-3.3-10.7-5.8c-7.9-2.2-16.9-4.5-16.9-14.4c0-11.5,9.8-16.5,20-16.5
	c10.7,0,20.3,4.1,20.8,16.2h-14.5c0.3-1.6-0.4-3.1-1.8-3.9c-1.3-0.9-2.9-1.3-4.6-1.3c-2.1,0-5.5,0.5-5.5,3.4
	c0.3,3.5,7.3,4.3,14.4,6.3c7.1,2,14,5.2,14,14.4c0,13-11.9,17.2-23.1,17.2c-5.6,0-21.8-2-21.9-18H145.3z M195.4,263.5h-13.9v-12.8
	h43.2v12.8h-14v37h-15.3V263.5z M234.5,250.6h29.2c8.6,0,16.2,4.8,16.2,14.3c0,5.1-2.4,10.6-7.5,12.4c4.2,1.6,6.8,6.2,7.3,12.4
	c0.3,2.5,0.3,8.4,1.7,10.6h-15.3c-0.7-2.5-1-5.1-1.3-7.6c-0.4-4.7-0.8-9.7-6.9-9.7h-8.1v17.3h-15.3V250.6z M249.9,272.4h8
	c2.9,0,6.8-0.5,6.8-5c0-3.1-1.7-5-7.6-5h-7.2V272.4z M290.4,250.6h41.1v12.8h-25.8v6.2h23.5v11.8h-23.5v6.3h26.6v12.7h-41.9V250.6z
	 M357.4,250.6h14.9l18.1,49.8h-15.9l-2.1-7.1h-15.9l-2.2,7.1H339L357.4,250.6z M369.5,282.6l-4.5-15.3h-0.1l-4.8,15.3H369.5z
	 M398.1,250.6h21.8L427,280h0.1l7.1-29.4H456v49.8h-14.4v-32h-0.1l-8.6,32h-11.4l-8.6-32h-0.3v32h-14.4V250.6z M469,252.1
	c0,1.8-1.4,3.4-3.3,3.4c-1.8,0-3.4-1.4-3.4-3.3s1.4-3.4,3.3-3.4h0.1C467.5,248.8,469,250.2,469,252.1z M463.2,252.1
	c0,1.3,1,2.5,2.5,2.5s2.5-1,2.5-2.5l0,0c0-1.3-1-2.5-2.5-2.5S463.2,250.6,463.2,252.1L463.2,252.1z M465.2,253.8h-0.8v-3.3
	c0.4-0.1,0.8-0.1,1.2-0.1c0.4,0,0.8,0,1.2,0.3c0.3,0.1,0.3,0.4,0.3,0.7c0,0.4-0.3,0.7-0.7,0.8l0,0c0.4,0.1,0.5,0.4,0.7,0.8
	c0,0.3,0.1,0.5,0.3,0.8h-0.8c-0.1-0.3-0.3-0.5-0.3-0.8c0-0.4-0.3-0.5-0.7-0.5h-0.4V253.8z M465.2,251.9h0.4c0.4,0,0.8-0.1,0.8-0.5
	s-0.3-0.5-0.7-0.5c-0.1,0-0.3,0-0.4,0v1H465.2z"/>
<path class="st0" d="M-87.4,283.6c-6.3,0-11.5,5.1-11.5,11.5c0,6.3,5.1,11.5,11.5,11.5c6.3,0,11.5-5.1,11.5-11.5l0,0
	C-75.9,288.8-81,283.6-87.4,283.6z M-87.4,299.9c-2.6,0-4.7-2.1-4.7-4.7s2.1-4.7,4.7-4.7c2.6,0,4.7,2.1,4.7,4.7
	C-82.6,297.7-84.7,299.9-87.4,299.9C-87.4,299.9-87.4,299.9-87.4,299.9L-87.4,299.9z M-87.1,259.1h-0.2l-5.4,17.2h10.6L-87.1,259.1z
	 M-39.7,289.4h-6.9c1.3-2.6,2.8-8.4,2.9-16.9v-2.8c0-0.8,0-1.6-0.1-2.4s-0.1-1.8-0.2-2.7c-0.9-10.9-3.6-14.3-9.4-17.5
	c-4.2-2.3-15.6-3.2-24.4-3.6l16.7,45.9l1.2,3.2l0,0h20c0.9-0.2,1.5-1.1,1.3-2C-38.6,290-39.1,289.5-39.7,289.4L-39.7,289.4z
	 M-121.4,247.2c-5.8,3.2-8.5,6.6-9.4,17.5c-0.1,0.9-0.1,1.7-0.2,2.7c-0.1,0.9-0.1,1.6-0.1,2.4v2.7c0.2,10.2,2.4,16.6,3.6,18.2
	c1.1,1.3,6.5,1.8,12.5,2l18.1-49.2C-105.7,243.9-117.1,244.8-121.4,247.2z"/>
</svg>
